<svg xmlns="http://www.w3.org/2000/svg"
   xmlns:xlink="http://www.w3.org/1999/xlink"
   version="1.1"
   id="filtrorc1" width="100%" height="100%"  viewBox="-6 -6 626 448">
<desc>
XCircuit Version 3.9
File "filtrorc1.ps" Page 1
</desc>
<g stroke="black">
<path d="M512,298 L512,240 " fill="none" stroke-width="2" stroke-linejoin="bevel" stroke-linecap="round" />
<path d="M512,170 L512,228 " fill="none" stroke-width="2" stroke-linejoin="bevel" stroke-linecap="round" />
<path d="M480,228 L544,228 " fill="none" stroke-width="2" stroke-linejoin="bevel" stroke-linecap="round" />
<path d="M480,240 L544,240 " fill="none" stroke-width="2" stroke-linejoin="bevel" stroke-linecap="round" />
<path d="M304,90 L332,90 " fill="none" stroke-width="2" stroke-linejoin="bevel" stroke-linecap="round" />
<path d="M432,90 L404,90 " fill="none" stroke-width="2" stroke-linejoin="bevel" stroke-linecap="round" />
<path d="M404,90 L398,76 386,104 374,76 362,104 350,76 338,104 332,90 " fill="none" stroke-width="2" stroke-linejoin="bevel" stroke-linecap="round" />
<ellipse cx="128" cy="218" rx="32" ry="32" fill="none" stroke-width="2" stroke-linejoin="bevel" stroke-linecap="round" />
<path d="M128,186 L128,154 " fill="none" stroke-width="2" stroke-linejoin="bevel" stroke-linecap="round" />
<path d="M128,250 L128,282 " fill="none" stroke-width="2" stroke-linejoin="bevel" stroke-linecap="round" />
<path d="M144,218 C128,266 128,170 112,218 " fill="none" stroke-width="1.6" stroke-linejoin="bevel" stroke-linecap="round" />
<path d="M128,154 L128,90 304,90 " fill="none" stroke-width="2" stroke-linejoin="bevel" stroke-linecap="round" />
<path d="M128,282 L128,442 512,442 512,282 " fill="none" stroke-width="2" stroke-linejoin="bevel" stroke-linecap="round" />
<path d="M432,90 L512,90 512,186 " fill="none" stroke-width="2" stroke-linejoin="bevel" stroke-linecap="round" />
<g transform="matrix(   1    0   -0    1   0 234)" >
<text stroke="none" font-family="Helvetica" font-size="40" ><tspan x="0" y="0">vin</tspan>
</text></g>
<g transform="matrix(   1    0   -0    1 576 234)" >
<text stroke="none" font-family="Helvetica" font-size="40" ><tspan x="0" y="0">v0</tspan>
</text></g>
<g transform="matrix(   1    0   -0    1 416 250)" >
<text stroke="none" font-family="Helvetica" font-size="40" ><tspan x="0" y="0">C</tspan>
</text></g>
<g transform="matrix(   1    0   -0    1 352  26)" >
<text stroke="none" font-family="Helvetica" font-size="40" ><tspan x="0" y="0">R</tspan>
</text></g>
</g>
</svg>
