<svg xmlns="http://www.w3.org/2000/svg"
   xmlns:xlink="http://www.w3.org/1999/xlink"
   version="1.1"
   id="impedanciaC" width="100%" height="100%"  viewBox="-6 -6 402 214">
<desc>
XCircuit Version 3.9
File "impedanciaC.ps" Page 1
</desc>
<g stroke="black">
<path d="M96,176 L96,118 " fill="none" stroke-width="2" stroke-linejoin="bevel" stroke-linecap="round" />
<path d="M96,48 L96,106 " fill="none" stroke-width="2" stroke-linejoin="bevel" stroke-linecap="round" />
<path d="M64,106 L128,106 " fill="none" stroke-width="2" stroke-linejoin="bevel" stroke-linecap="round" />
<path d="M64,118 L128,118 " fill="none" stroke-width="2" stroke-linejoin="bevel" stroke-linecap="round" />
<path d="M152,112 L212,112 " fill="none" stroke-width="1.6" stroke-linejoin="bevel" stroke-linecap="round" />
<path d="M204,120 C214,115 217,115 232,112 C217,109 214,109 204,104 C206,110 206,114 204,120 " stroke="none" />
<path d="M272,64 L272,144 304,144 304,64 z" fill="none" stroke-width="2" stroke-linejoin="bevel" stroke-linecap="round" />
<path d="M288,64 L288,0 " fill="none" stroke-width="2" stroke-linejoin="bevel" stroke-linecap="round" />
<path d="M288,144 L288,208 " fill="none" stroke-width="2" stroke-linejoin="bevel" stroke-linecap="round" />
<g transform="matrix(   1    0   -0    1   0 128)" >
<text stroke="none" font-family="Helvetica" font-size="40" ><tspan x="0" y="0">C</tspan>
</text></g>
<g transform="matrix(   1    0   -0    1 352 128)" >
<text stroke="none" font-family="Helvetica" font-size="40" ><tspan x="0" y="0">Z</tspan>
</text></g>
<g transform="matrix(   1    0   -0    1 368 160)" >
<text stroke="none" font-family="Helvetica" font-size="40" ><tspan x="0" y="0">C</tspan>
</text></g>
</g>
</svg>
